{
    "asset" : {
        "generator" : "Khronos glTF Blender I/O v1.8.19",
        "version" : "2.0"
    },
    "scene" : 0,
    "scenes" : [
        {
            "extras" : {
                "qremesher" : {
                    "target_count" : 1000
                },
                "rpr" : {
                    "saved_addon_version" : [
                        3,
                        3,
                        15
                    ]
                },
                "crowd_render" : {
                    "render_engine" : 0,
                    "local_node" : {
                        "name" : "local"
                    },
                    "data_is_updated" : 0
                },
                "cr_nodes" : [
                    {
                        "cr_version" : "0_3_1",
                        "name" : "DESKTOP-M33K6P1",
                        "node_active" : 0,
                        "node_access_key" : "",
                        "node_uuid" : "a28ae1f4-4548-56fd-8c1a-eca7dc1ddeba",
                        "node_state" : 0
                    }
                ],
                "muv_pack_uv_enabled" : 1
            },
            "name" : "Scene",
            "nodes" : [
                0,
                1,
                2,
                3
            ]
        }
    ],
    "nodes" : [
        {
            "extras" : {
                "rpr" : {}
            },
            "mesh" : 0,
            "name" : "flamingo"
        },
        {
            "extras" : {
                "rpr" : {}
            },
            "mesh" : 1,
            "name" : "rim"
        },
        {
            "extras" : {
                "rpr" : {}
            },
            "mesh" : 2,
            "name" : "inside"
        },
        {
            "extras" : {
                "rpr" : {}
            },
            "mesh" : 3,
            "name" : "plane"
        }
    ],
    "materials" : [
        {
            "doubleSided" : true,
            "name" : "textured",
            "normalTexture" : {
                "index" : 0
            },
            "pbrMetallicRoughness" : {
                "baseColorTexture" : {
                    "index" : 1
                },
                "metallicRoughnessTexture" : {
                    "index" : 2
                }
            }
        },
        {
            "doubleSided" : true,
            "name" : "planeMaterial",
            "pbrMetallicRoughness" : {
                "baseColorFactor" : [
                    0.49693283438682556,
                    0.18782059848308563,
                    0.19806931912899017,
                    1
                ],
                "metallicFactor" : 0
            }
        }
    ],
    "meshes" : [
        {
            "name" : "mesh",
            "primitives" : [
                {
                    "attributes" : {
                        "POSITION" : 0,
                        "NORMAL" : 1,
                        "TEXCOORD_0" : 2,
                        "COLOR_0" : 3
                    },
                    "indices" : 4,
                    "material" : 0
                }
            ]
        },
        {
            "name" : "Plane.005",
            "primitives" : [
                {
                    "attributes" : {
                        "POSITION" : 5,
                        "NORMAL" : 6,
                        "TEXCOORD_0" : 7,
                        "COLOR_0" : 8
                    },
                    "indices" : 9,
                    "material" : 0
                }
            ]
        },
        {
            "name" : "Plane.001",
            "primitives" : [
                {
                    "attributes" : {
                        "POSITION" : 10,
                        "NORMAL" : 11,
                        "TEXCOORD_0" : 12,
                        "COLOR_0" : 13
                    },
                    "indices" : 14,
                    "material" : 0
                }
            ]
        },
        {
            "name" : "Plane.004",
            "primitives" : [
                {
                    "attributes" : {
                        "POSITION" : 15,
                        "NORMAL" : 16,
                        "TEXCOORD_0" : 17,
                        "COLOR_0" : 18
                    },
                    "indices" : 19,
                    "material" : 1
                }
            ]
        }
    ],
    "textures" : [
        {
            "sampler" : 0,
            "source" : 0
        },
        {
            "sampler" : 0,
            "source" : 1
        },
        {
            "sampler" : 0,
            "source" : 2
        }
    ],
    "images" : [
        {
            "bufferView" : 5,
            "mimeType" : "image/jpeg",
            "name" : "pool_textured_Normal"
        },
        {
            "bufferView" : 6,
            "mimeType" : "image/jpeg",
            "name" : "pool_textured_BaseColor"
        },
        {
            "bufferView" : 7,
            "mimeType" : "image/jpeg",
            "name" : "pool_textured_Metallic-pool_textured_Roughness"
        }
    ],
    "accessors" : [
        {
            "bufferView" : 0,
            "componentType" : 5126,
            "count" : 5080,
            "max" : [
                -10.33610725402832,
                4.33391809463501,
                13.066349029541016
            ],
            "min" : [
                -12.36936092376709,
                0.3161647319793701,
                11.312749862670898
            ],
            "type" : "VEC3"
        },
        {
            "bufferView" : 1,
            "componentType" : 5126,
            "count" : 5080,
            "type" : "VEC3"
        },
        {
            "bufferView" : 2,
            "componentType" : 5126,
            "count" : 5080,
            "type" : "VEC2"
        },
        {
            "bufferView" : 3,
            "componentType" : 5123,
            "count" : 5080,
            "normalized" : true,
            "type" : "VEC4"
        },
        {
            "bufferView" : 4,
            "componentType" : 5123,
            "count" : 22770,
            "type" : "SCALAR"
        },
        {
            "bufferView" : 8,
            "componentType" : 5126,
            "count" : 740,
            "max" : [
                12,
                1.2999999523162842,
                14
            ],
            "min" : [
                -12,
                0,
                -14
            ],
            "type" : "VEC3"
        },
        {
            "bufferView" : 9,
            "componentType" : 5126,
            "count" : 740,
            "type" : "VEC3"
        },
        {
            "bufferView" : 10,
            "componentType" : 5126,
            "count" : 740,
            "type" : "VEC2"
        },
        {
            "bufferView" : 11,
            "componentType" : 5123,
            "count" : 740,
            "normalized" : true,
            "type" : "VEC4"
        },
        {
            "bufferView" : 12,
            "componentType" : 5123,
            "count" : 1944,
            "type" : "SCALAR"
        },
        {
            "bufferView" : 13,
            "componentType" : 5126,
            "count" : 20,
            "max" : [
                11,
                0,
                13
            ],
            "min" : [
                -11,
                -1.999997854232788,
                -13
            ],
            "type" : "VEC3"
        },
        {
            "bufferView" : 14,
            "componentType" : 5126,
            "count" : 20,
            "type" : "VEC3"
        },
        {
            "bufferView" : 15,
            "componentType" : 5126,
            "count" : 20,
            "type" : "VEC2"
        },
        {
            "bufferView" : 16,
            "componentType" : 5123,
            "count" : 20,
            "normalized" : true,
            "type" : "VEC4"
        },
        {
            "bufferView" : 17,
            "componentType" : 5123,
            "count" : 30,
            "type" : "SCALAR"
        },
        {
            "bufferView" : 18,
            "componentType" : 5126,
            "count" : 256,
            "max" : [
                89.79377746582031,
                0,
                104.7593994140625
            ],
            "min" : [
                -89.79377746582031,
                0,
                -104.7593994140625
            ],
            "type" : "VEC3"
        },
        {
            "bufferView" : 19,
            "componentType" : 5126,
            "count" : 256,
            "type" : "VEC3"
        },
        {
            "bufferView" : 20,
            "componentType" : 5126,
            "count" : 256,
            "type" : "VEC2"
        },
        {
            "bufferView" : 21,
            "componentType" : 5123,
            "count" : 256,
            "normalized" : true,
            "type" : "VEC4"
        },
        {
            "bufferView" : 22,
            "componentType" : 5123,
            "count" : 624,
            "type" : "SCALAR"
        }
    ],
    "bufferViews" : [
        {
            "buffer" : 0,
            "byteLength" : 60960,
            "byteOffset" : 0
        },
        {
            "buffer" : 0,
            "byteLength" : 60960,
            "byteOffset" : 60960
        },
        {
            "buffer" : 0,
            "byteLength" : 40640,
            "byteOffset" : 121920
        },
        {
            "buffer" : 0,
            "byteLength" : 40640,
            "byteOffset" : 162560
        },
        {
            "buffer" : 0,
            "byteLength" : 45540,
            "byteOffset" : 203200
        },
        {
            "buffer" : 0,
            "byteLength" : 311674,
            "byteOffset" : 248740
        },
        {
            "buffer" : 0,
            "byteLength" : 536220,
            "byteOffset" : 560416
        },
        {
            "buffer" : 0,
            "byteLength" : 499661,
            "byteOffset" : 1096636
        },
        {
            "buffer" : 0,
            "byteLength" : 8880,
            "byteOffset" : 1596300
        },
        {
            "buffer" : 0,
            "byteLength" : 8880,
            "byteOffset" : 1605180
        },
        {
            "buffer" : 0,
            "byteLength" : 5920,
            "byteOffset" : 1614060
        },
        {
            "buffer" : 0,
            "byteLength" : 5920,
            "byteOffset" : 1619980
        },
        {
            "buffer" : 0,
            "byteLength" : 3888,
            "byteOffset" : 1625900
        },
        {
            "buffer" : 0,
            "byteLength" : 240,
            "byteOffset" : 1629788
        },
        {
            "buffer" : 0,
            "byteLength" : 240,
            "byteOffset" : 1630028
        },
        {
            "buffer" : 0,
            "byteLength" : 160,
            "byteOffset" : 1630268
        },
        {
            "buffer" : 0,
            "byteLength" : 160,
            "byteOffset" : 1630428
        },
        {
            "buffer" : 0,
            "byteLength" : 60,
            "byteOffset" : 1630588
        },
        {
            "buffer" : 0,
            "byteLength" : 3072,
            "byteOffset" : 1630648
        },
        {
            "buffer" : 0,
            "byteLength" : 3072,
            "byteOffset" : 1633720
        },
        {
            "buffer" : 0,
            "byteLength" : 2048,
            "byteOffset" : 1636792
        },
        {
            "buffer" : 0,
            "byteLength" : 2048,
            "byteOffset" : 1638840
        },
        {
            "buffer" : 0,
            "byteLength" : 1248,
            "byteOffset" : 1640888
        }
    ],
    "samplers" : [
        {
            "magFilter" : 9729,
            "minFilter" : 9987
        }
    ],
    "buffers" : [
        {
            "byteLength" : 1642136,
            "uri" : "data:application/octet-stream;base64,"
        }
    ]
}
