{
    "asset" : {
        "generator" : "Khronos glTF Blender I/O v1.6.16",
        "version" : "2.0"
    },
    "scene" : 0,
    "scenes" : [
        {
            "extras" : {
                "glTF2ExportSettings" : {
                    "export_animations" : 0,
                    "export_apply" : 1,
                    "export_extras" : 1,
                    "export_format" : "GLTF_EMBEDDED",
                    "export_materials" : "NONE",
                    "export_morph" : 0,
                    "export_skins" : 0,
                    "use_selection" : 1
                },
                "qremesher" : {
                    "target_count" : 1000
                }
            },
            "name" : "Scene",
            "nodes" : [
                0,
                1,
                2,
                3
            ]
        }
    ],
    "nodes" : [
        {
            "mesh" : 0,
            "name" : "flamingo"
        },
        {
            "mesh" : 1,
            "name" : "plane"
        },
        {
            "mesh" : 2,
            "name" : "rim"
        },
        {
            "mesh" : 3,
            "name" : "inside"
        }
    ],
    "meshes" : [
        {
            "name" : "mesh",
            "primitives" : [
                {
                    "attributes" : {
                        "POSITION" : 0,
                        "NORMAL" : 1,
                        "TEXCOORD_0" : 2
                    },
                    "indices" : 3
                }
            ]
        },
        {
            "name" : "Plane.003",
            "primitives" : [
                {
                    "attributes" : {
                        "POSITION" : 4,
                        "NORMAL" : 5,
                        "TEXCOORD_0" : 6
                    },
                    "indices" : 7
                }
            ]
        },
        {
            "name" : "Plane.005",
            "primitives" : [
                {
                    "attributes" : {
                        "POSITION" : 8,
                        "NORMAL" : 9,
                        "TEXCOORD_0" : 10
                    },
                    "indices" : 11
                }
            ]
        },
        {
            "name" : "mesh.001",
            "primitives" : [
                {
                    "attributes" : {
                        "POSITION" : 12,
                        "NORMAL" : 13,
                        "TEXCOORD_0" : 14
                    },
                    "indices" : 15
                }
            ]
        }
    ],
    "accessors" : [
        {
            "bufferView" : 0,
            "componentType" : 5126,
            "count" : 15180,
            "max" : [
                -10.33610725402832,
                4.33391809463501,
                13.066349029541016
            ],
            "min" : [
                -12.36936092376709,
                0.3161647319793701,
                11.312749862670898
            ],
            "type" : "VEC3"
        },
        {
            "bufferView" : 1,
            "componentType" : 5126,
            "count" : 15180,
            "type" : "VEC3"
        },
        {
            "bufferView" : 2,
            "componentType" : 5126,
            "count" : 15180,
            "type" : "VEC2"
        },
        {
            "bufferView" : 3,
            "componentType" : 5123,
            "count" : 22770,
            "type" : "SCALAR"
        },
        {
            "bufferView" : 4,
            "componentType" : 5126,
            "count" : 9988,
            "max" : [
                100,
                0,
                100
            ],
            "min" : [
                -100,
                0,
                -100
            ],
            "type" : "VEC3"
        },
        {
            "bufferView" : 5,
            "componentType" : 5126,
            "count" : 9988,
            "type" : "VEC3"
        },
        {
            "bufferView" : 6,
            "componentType" : 5126,
            "count" : 9988,
            "type" : "VEC2"
        },
        {
            "bufferView" : 7,
            "componentType" : 5123,
            "count" : 58392,
            "type" : "SCALAR"
        },
        {
            "bufferView" : 8,
            "componentType" : 5126,
            "count" : 712,
            "max" : [
                12,
                1.2999999523162842,
                14
            ],
            "min" : [
                -12,
                0,
                -14
            ],
            "type" : "VEC3"
        },
        {
            "bufferView" : 9,
            "componentType" : 5126,
            "count" : 712,
            "type" : "VEC3"
        },
        {
            "bufferView" : 10,
            "componentType" : 5126,
            "count" : 712,
            "type" : "VEC2"
        },
        {
            "bufferView" : 11,
            "componentType" : 5123,
            "count" : 1944,
            "type" : "SCALAR"
        },
        {
            "bufferView" : 12,
            "componentType" : 5126,
            "count" : 19100,
            "max" : [
                11,
                2.1179687337280484e-06,
                13
            ],
            "min" : [
                -11,
                -2.000002145767212,
                -13
            ],
            "type" : "VEC3"
        },
        {
            "bufferView" : 13,
            "componentType" : 5126,
            "count" : 19100,
            "type" : "VEC3"
        },
        {
            "bufferView" : 14,
            "componentType" : 5126,
            "count" : 19100,
            "type" : "VEC2"
        },
        {
            "bufferView" : 15,
            "componentType" : 5123,
            "count" : 73344,
            "type" : "SCALAR"
        }
    ],
    "bufferViews" : [
        {
            "buffer" : 0,
            "byteLength" : 182160,
            "byteOffset" : 0
        },
        {
            "buffer" : 0,
            "byteLength" : 182160,
            "byteOffset" : 182160
        },
        {
            "buffer" : 0,
            "byteLength" : 121440,
            "byteOffset" : 364320
        },
        {
            "buffer" : 0,
            "byteLength" : 45540,
            "byteOffset" : 485760
        },
        {
            "buffer" : 0,
            "byteLength" : 119856,
            "byteOffset" : 531300
        },
        {
            "buffer" : 0,
            "byteLength" : 119856,
            "byteOffset" : 651156
        },
        {
            "buffer" : 0,
            "byteLength" : 79904,
            "byteOffset" : 771012
        },
        {
            "buffer" : 0,
            "byteLength" : 116784,
            "byteOffset" : 850916
        },
        {
            "buffer" : 0,
            "byteLength" : 8544,
            "byteOffset" : 967700
        },
        {
            "buffer" : 0,
            "byteLength" : 8544,
            "byteOffset" : 976244
        },
        {
            "buffer" : 0,
            "byteLength" : 5696,
            "byteOffset" : 984788
        },
        {
            "buffer" : 0,
            "byteLength" : 3888,
            "byteOffset" : 990484
        },
        {
            "buffer" : 0,
            "byteLength" : 229200,
            "byteOffset" : 994372
        },
        {
            "buffer" : 0,
            "byteLength" : 229200,
            "byteOffset" : 1223572
        },
        {
            "buffer" : 0,
            "byteLength" : 152800,
            "byteOffset" : 1452772
        },
        {
            "buffer" : 0,
            "byteLength" : 146688,
            "byteOffset" : 1605572
        }
    ],
    "buffers" : [
        {
            "byteLength" : 1752260,
            "uri" : "data:application/octet-stream;base64,"
        }
    ]
}
